<?xml version="1.0" encoding="UTF-8" standalone="no"?>
<!DOCTYPE svg PUBLIC "-//W3C//DTD SVG 1.1//EN"
 "http://www.w3.org/Graphics/SVG/1.1/DTD/svg11.dtd">
<!-- Generated by graphviz version 12.1.2 (20240928.0832)
 -->
<!-- Title: dependency&#45;cruiser output Pages: 1 -->
<svg width="224pt" height="229pt"
 viewBox="0.00 0.00 224.00 229.25" xmlns="http://www.w3.org/2000/svg" xmlns:xlink="http://www.w3.org/1999/xlink">
<g id="graph0" class="graph" transform="scale(1 1) rotate(0) translate(4 225.25)">
<title>dependency&#45;cruiser output</title>
<polygon fill="white" stroke="none" points="-4,4 -4,-225.25 220,-225.25 220,4 -4,4"/>
<g id="clust1" class="cluster">
<title>cluster_src</title>
<path fill="#ffffff" stroke="black" stroke-width="2" d="M20,-8C20,-8 196,-8 196,-8 202,-8 208,-14 208,-20 208,-20 208,-201.25 208,-201.25 208,-207.25 202,-213.25 196,-213.25 196,-213.25 20,-213.25 20,-213.25 14,-213.25 8,-207.25 8,-201.25 8,-201.25 8,-20 8,-20 8,-14 14,-8 20,-8"/>
<text text-anchor="middle" x="108" y="-200.7" font-family="Helvetica,sans-Serif" font-weight="bold" font-size="9.00">src</text>
</g>
<!-- src/application -->
<g id="node1" class="node">
<title>src/application</title>
<g id="a_node1"><a xlink:href="src/application" xlink:title="application">
<polygon fill="#ffffcc" stroke="black" points="91.5,-95.25 32.47,-95.25 30.5,-93.28 30.5,-77.5 89.53,-77.5 91.5,-79.47 91.5,-95.25"/>
<polyline fill="none" stroke="black" points="89.53,-93.28 30.5,-93.28"/>
<polyline fill="none" stroke="black" points="89.53,-93.28 89.53,-77.5"/>
<polyline fill="none" stroke="black" points="89.53,-93.28 91.5,-95.25"/>
<text text-anchor="start" x="38.5" y="-82.7" font-family="Helvetica,sans-Serif" font-size="9.00">application</text>
</a>
</g>
</g>
<!-- src/shared -->
<g id="node2" class="node">
<title>src/shared</title>
<g id="a_node2"><a xlink:href="src/shared" xlink:title="shared">
<polygon fill="#ffffcc" stroke="black" points="100,-33.75 47.97,-33.75 46,-31.78 46,-16 98.03,-16 100,-17.97 100,-33.75"/>
<polyline fill="none" stroke="black" points="98.03,-31.78 46,-31.78"/>
<polyline fill="none" stroke="black" points="98.03,-31.78 98.03,-16"/>
<polyline fill="none" stroke="black" points="98.03,-31.78 100,-33.75"/>
<text text-anchor="start" x="58.75" y="-21.2" font-family="Helvetica,sans-Serif" font-size="9.00">shared</text>
</a>
</g>
</g>
<!-- src/application&#45;&gt;src/shared -->
<g id="edge1" class="edge">
<title>src/application&#45;&gt;src/shared</title>
<path fill="none" stroke="#000000" stroke-width="2" stroke-opacity="0.200000" d="M59.39,-77.21C58.15,-69.26 57.09,-56.94 60,-46.75 60.49,-45.03 61.17,-43.31 61.97,-41.63"/>
<polygon fill="#000000" fill-opacity="0.200000" stroke="#000000" stroke-width="2" stroke-opacity="0.200000" points="63.76,-42.74 65,-36.5 60.14,-40.6 63.76,-42.74"/>
</g>
<!-- src/host -->
<g id="node3" class="node">
<title>src/host</title>
<g id="a_node3"><a xlink:href="src/host" xlink:title="host">
<polygon fill="#ffffcc" stroke="black" points="120,-64.5 67.97,-64.5 66,-62.53 66,-46.75 118.03,-46.75 120,-48.72 120,-64.5"/>
<polyline fill="none" stroke="black" points="118.03,-62.53 66,-62.53"/>
<polyline fill="none" stroke="black" points="118.03,-62.53 118.03,-46.75"/>
<polyline fill="none" stroke="black" points="118.03,-62.53 120,-64.5"/>
<text text-anchor="start" x="84.38" y="-51.95" font-family="Helvetica,sans-Serif" font-size="9.00">host</text>
</a>
</g>
</g>
<!-- src/application&#45;&gt;src/host -->
<g id="edge2" class="edge">
<title>src/application&#45;&gt;src/host</title>
<path fill="none" stroke="#000000" stroke-width="2" stroke-opacity="0.200000" d="M70.08,-77.21C72.36,-75.17 74.87,-72.91 77.37,-70.67"/>
<polygon fill="#000000" fill-opacity="0.200000" stroke="#000000" stroke-width="2" stroke-opacity="0.200000" points="78.47,-72.5 81.53,-66.93 75.66,-69.38 78.47,-72.5"/>
</g>
<!-- src/host&#45;&gt;src/shared -->
<g id="edge7" class="edge">
<title>src/host&#45;&gt;src/shared</title>
<path fill="none" stroke="#000000" stroke-width="2" stroke-opacity="0.200000" d="M87.32,-46.46C86.23,-44.9 85.06,-43.21 83.87,-41.5"/>
<polygon fill="#000000" fill-opacity="0.200000" stroke="#000000" stroke-width="2" stroke-opacity="0.200000" points="85.64,-40.37 80.49,-36.64 82.19,-42.77 85.64,-40.37"/>
</g>
<!-- src/assets -->
<g id="node4" class="node">
<title>src/assets</title>
<g id="a_node4"><a xlink:href="src/assets" xlink:title="assets">
<polygon fill="#ffffcc" stroke="black" points="200,-95.25 147.97,-95.25 146,-93.28 146,-77.5 198.03,-77.5 200,-79.47 200,-95.25"/>
<polyline fill="none" stroke="black" points="198.03,-93.28 146,-93.28"/>
<polyline fill="none" stroke="black" points="198.03,-93.28 198.03,-77.5"/>
<polyline fill="none" stroke="black" points="198.03,-93.28 200,-95.25"/>
<text text-anchor="start" x="159.88" y="-82.7" font-family="Helvetica,sans-Serif" font-size="9.00">assets</text>
</a>
</g>
</g>
<!-- src/final -->
<g id="node5" class="node">
<title>src/final</title>
<g id="a_node5"><a xlink:href="src/final" xlink:title="final">
<polygon fill="#ffffcc" stroke="black" points="166,-126 113.97,-126 112,-124.03 112,-108.25 164.03,-108.25 166,-110.22 166,-126"/>
<polyline fill="none" stroke="black" points="164.03,-124.03 112,-124.03"/>
<polyline fill="none" stroke="black" points="164.03,-124.03 164.03,-108.25"/>
<polyline fill="none" stroke="black" points="164.03,-124.03 166,-126"/>
<text text-anchor="start" x="130.38" y="-113.45" font-family="Helvetica,sans-Serif" font-size="9.00">final</text>
</a>
</g>
</g>
<!-- src/final&#45;&gt;src/application -->
<g id="edge4" class="edge">
<title>src/final&#45;&gt;src/application</title>
<path fill="none" stroke="#000000" stroke-width="2" stroke-opacity="0.200000" d="M116.44,-107.81C108.76,-104.98 100.04,-101.76 91.82,-98.74"/>
<polygon fill="#000000" fill-opacity="0.200000" stroke="#000000" stroke-width="2" stroke-opacity="0.200000" points="92.71,-96.82 86.35,-96.72 91.25,-100.76 92.71,-96.82"/>
</g>
<!-- src/final&#45;&gt;src/shared -->
<g id="edge3" class="edge">
<title>src/final&#45;&gt;src/shared</title>
<path fill="none" stroke="#000000" stroke-width="2" stroke-opacity="0.200000" d="M138.43,-107.75C137.17,-91.39 133.61,-55.96 126,-46.75 121.48,-41.28 115.34,-37.24 108.83,-34.25"/>
<polygon fill="#000000" fill-opacity="0.200000" stroke="#000000" stroke-width="2" stroke-opacity="0.200000" points="109.66,-32.32 103.31,-32.1 108.14,-36.24 109.66,-32.32"/>
</g>
<!-- src/final&#45;&gt;src/host -->
<g id="edge6" class="edge">
<title>src/final&#45;&gt;src/host</title>
<path fill="none" stroke="#000000" stroke-width="2" stroke-opacity="0.200000" d="M132.6,-107.85C125.39,-98.53 113.53,-83.17 104.66,-71.7"/>
<polygon fill="#000000" fill-opacity="0.200000" stroke="#000000" stroke-width="2" stroke-opacity="0.200000" points="106.52,-70.69 101.19,-67.22 103.2,-73.25 106.52,-70.69"/>
</g>
<!-- src/final&#45;&gt;src/assets -->
<g id="edge5" class="edge">
<title>src/final&#45;&gt;src/assets</title>
<path fill="none" stroke="#000000" stroke-width="2" stroke-opacity="0.200000" d="M148.65,-107.96C151.07,-105.92 153.74,-103.66 156.39,-101.42"/>
<polygon fill="#000000" fill-opacity="0.200000" stroke="#000000" stroke-width="2" stroke-opacity="0.200000" points="157.67,-103.09 160.89,-97.61 154.96,-99.88 157.67,-103.09"/>
</g>
<!-- src/infrastructure -->
<g id="node6" class="node">
<title>src/infrastructure</title>
<g id="a_node6"><a xlink:href="src/infrastructure" xlink:title="infrastructure">
<polygon fill="#ffffcc" stroke="black" points="122.62,-156.75 55.35,-156.75 53.38,-154.78 53.38,-139 120.65,-139 122.62,-140.97 122.62,-156.75"/>
<polyline fill="none" stroke="black" points="120.65,-154.78 53.38,-154.78"/>
<polyline fill="none" stroke="black" points="120.65,-154.78 120.65,-139"/>
<polyline fill="none" stroke="black" points="120.65,-154.78 122.62,-156.75"/>
<text text-anchor="start" x="61.38" y="-144.2" font-family="Helvetica,sans-Serif" font-size="9.00">infrastructure</text>
</a>
</g>
</g>
<!-- src/infrastructure&#45;&gt;src/application -->
<g id="edge8" class="edge">
<title>src/infrastructure&#45;&gt;src/application</title>
<path fill="none" stroke="#000000" stroke-width="2" stroke-opacity="0.200000" d="M84.25,-138.6C80.18,-129.63 73.57,-115.08 68.44,-103.78"/>
<polygon fill="#000000" fill-opacity="0.200000" stroke="#000000" stroke-width="2" stroke-opacity="0.200000" points="70.36,-102.93 65.97,-98.33 66.54,-104.67 70.36,-102.93"/>
</g>
<!-- src/infrastructure&#45;&gt;src/shared -->
<g id="edge11" class="edge">
<title>src/infrastructure&#45;&gt;src/shared</title>
<path fill="none" stroke="#000000" stroke-width="2" stroke-opacity="0.200000" d="M70.99,-138.52C55.77,-130 34.44,-115.19 25,-95.25 15.07,-74.28 35.8,-52.71 53.05,-39.3"/>
<polygon fill="#000000" fill-opacity="0.200000" stroke="#000000" stroke-width="2" stroke-opacity="0.200000" points="54.11,-41.13 57.7,-35.88 51.62,-37.75 54.11,-41.13"/>
</g>
<!-- src/infrastructure&#45;&gt;src/host -->
<g id="edge10" class="edge">
<title>src/infrastructure&#45;&gt;src/host</title>
<path fill="none" stroke="#000000" stroke-width="2" stroke-opacity="0.200000" d="M90.55,-138.78C94.31,-125.85 100.63,-99.74 98,-77.5 97.84,-76.16 97.63,-74.78 97.38,-73.4"/>
<polygon fill="#000000" fill-opacity="0.200000" stroke="#000000" stroke-width="2" stroke-opacity="0.200000" points="99.44,-73.01 96.07,-67.63 95.35,-73.94 99.44,-73.01"/>
</g>
<!-- src/infrastructure&#45;&gt;src/final -->
<g id="edge9" class="edge">
<title>src/infrastructure&#45;&gt;src/final</title>
<path fill="none" stroke="#000000" stroke-width="2" stroke-opacity="0.200000" d="M102.75,-138.56C107.12,-136.09 112.01,-133.34 116.75,-130.67"/>
<polygon fill="#000000" fill-opacity="0.200000" stroke="#000000" stroke-width="2" stroke-opacity="0.200000" points="117.63,-132.59 121.82,-127.81 115.56,-128.93 117.63,-132.59"/>
</g>
<!-- src/runtime -->
<g id="node7" class="node">
<title>src/runtime</title>
<g id="a_node7"><a xlink:href="src/runtime" xlink:title="runtime">
<polygon fill="#ffffcc" stroke="black" points="115,-187.5 62.97,-187.5 61,-185.53 61,-169.75 113.03,-169.75 115,-171.72 115,-187.5"/>
<polyline fill="none" stroke="black" points="113.03,-185.53 61,-185.53"/>
<polyline fill="none" stroke="black" points="113.03,-185.53 113.03,-169.75"/>
<polyline fill="none" stroke="black" points="113.03,-185.53 115,-187.5"/>
<text text-anchor="start" x="72.62" y="-174.95" font-family="Helvetica,sans-Serif" font-size="9.00">runtime</text>
</a>
</g>
</g>
<!-- src/runtime&#45;&gt;src/infrastructure -->
<g id="edge12" class="edge">
<title>src/runtime&#45;&gt;src/infrastructure</title>
<path fill="none" stroke="#000000" stroke-width="2" stroke-dasharray="5,2" stroke-opacity="0.200000" d="M88,-169.46C88,-168.38 88,-167.24 88,-166.07"/>
<polygon fill="#000000" fill-opacity="0.200000" stroke="#000000" stroke-width="2" stroke-opacity="0.200000" points="90.1,-166.18 88,-160.18 85.9,-166.18 90.1,-166.18"/>
</g>
</g>
</svg>
