<?xml version="1.0" encoding="UTF-8" standalone="no"?>
<!DOCTYPE svg PUBLIC "-//W3C//DTD SVG 1.1//EN"
 "http://www.w3.org/Graphics/SVG/1.1/DTD/svg11.dtd">
<!-- Generated by graphviz version 10.0.1 (20240210.2158)
 -->
<!-- Title: dependency&#45;cruiser output Pages: 1 -->
<svg width="182pt" height="168pt"
 viewBox="0.00 0.00 182.00 167.75" xmlns="http://www.w3.org/2000/svg" xmlns:xlink="http://www.w3.org/1999/xlink">
<g id="graph0" class="graph" transform="scale(1 1) rotate(0) translate(4 163.75)">
<title>dependency&#45;cruiser output</title>
<polygon fill="white" stroke="none" points="-4,4 -4,-163.75 178,-163.75 178,4 -4,4"/>
<g id="clust1" class="cluster">
<title>cluster_src</title>
<path fill="#ffffff" stroke="black" stroke-width="2" d="M20,-8C20,-8 154,-8 154,-8 160,-8 166,-14 166,-20 166,-20 166,-139.75 166,-139.75 166,-145.75 160,-151.75 154,-151.75 154,-151.75 20,-151.75 20,-151.75 14,-151.75 8,-145.75 8,-139.75 8,-139.75 8,-20 8,-20 8,-14 14,-8 20,-8"/>
<text text-anchor="middle" x="87" y="-139.2" font-family="Helvetica,sans-Serif" font-weight="bold" font-size="9.00">src</text>
</g>
<!-- src/application -->
<g id="node1" class="node">
<title>src/application</title>
<g id="a_node1"><a xlink:href="src/application" xlink:title="application">
<polygon fill="#ffffcc" stroke="black" points="77.5,-64.5 18.47,-64.5 16.5,-62.53 16.5,-46.75 75.53,-46.75 77.5,-48.72 77.5,-64.5"/>
<polyline fill="none" stroke="black" points="75.53,-62.53 16.5,-62.53"/>
<polyline fill="none" stroke="black" points="75.53,-62.53 75.53,-46.75"/>
<polyline fill="none" stroke="black" points="75.53,-62.53 77.5,-64.5"/>
<text text-anchor="start" x="24.5" y="-51.95" font-family="Helvetica,sans-Serif" font-size="9.00">application</text>
</a>
</g>
</g>
<!-- src/shared -->
<g id="node2" class="node">
<title>src/shared</title>
<g id="a_node2"><a xlink:href="src/shared" xlink:title="shared">
<polygon fill="#ffffcc" stroke="black" points="118,-33.75 65.97,-33.75 64,-31.78 64,-16 116.03,-16 118,-17.97 118,-33.75"/>
<polyline fill="none" stroke="black" points="116.03,-31.78 64,-31.78"/>
<polyline fill="none" stroke="black" points="116.03,-31.78 116.03,-16"/>
<polyline fill="none" stroke="black" points="116.03,-31.78 118,-33.75"/>
<text text-anchor="start" x="76.75" y="-21.2" font-family="Helvetica,sans-Serif" font-size="9.00">shared</text>
</a>
</g>
</g>
<!-- src/application&#45;&gt;src/shared -->
<g id="edge1" class="edge">
<title>src/application&#45;&gt;src/shared</title>
<path fill="none" stroke="#000000" stroke-width="2" stroke-opacity="0.200000" d="M59.49,-46.46C63.08,-44.12 67.09,-41.5 71.02,-38.93"/>
<polygon fill="#000000" fill-opacity="0.200000" stroke="#000000" stroke-width="2" stroke-opacity="0.200000" points="71.92,-40.85 75.79,-35.81 69.62,-37.34 71.92,-40.85"/>
</g>
<!-- src/infrastructure -->
<g id="node3" class="node">
<title>src/infrastructure</title>
<g id="a_node3"><a xlink:href="src/infrastructure" xlink:title="infrastructure">
<polygon fill="#ffffcc" stroke="black" points="125.62,-95.25 58.35,-95.25 56.38,-93.28 56.38,-77.5 123.65,-77.5 125.62,-79.47 125.62,-95.25"/>
<polyline fill="none" stroke="black" points="123.65,-93.28 56.38,-93.28"/>
<polyline fill="none" stroke="black" points="123.65,-93.28 123.65,-77.5"/>
<polyline fill="none" stroke="black" points="123.65,-93.28 125.62,-95.25"/>
<text text-anchor="start" x="64.38" y="-82.7" font-family="Helvetica,sans-Serif" font-size="9.00">infrastructure</text>
</a>
</g>
</g>
<!-- src/infrastructure&#45;&gt;src/application -->
<g id="edge4" class="edge">
<title>src/infrastructure&#45;&gt;src/application</title>
<path fill="none" stroke="#000000" stroke-width="2" stroke-opacity="0.200000" d="M78.51,-77.21C74.92,-74.87 70.91,-72.25 66.98,-69.68"/>
<polygon fill="#000000" fill-opacity="0.200000" stroke="#000000" stroke-width="2" stroke-opacity="0.200000" points="68.38,-68.09 62.21,-66.56 66.08,-71.6 68.38,-68.09"/>
</g>
<!-- src/infrastructure&#45;&gt;src/shared -->
<g id="edge2" class="edge">
<title>src/infrastructure&#45;&gt;src/shared</title>
<path fill="none" stroke="#000000" stroke-width="2" stroke-opacity="0.200000" d="M91,-77.1C91,-68.31 91,-54.16 91,-42.96"/>
<polygon fill="#000000" fill-opacity="0.200000" stroke="#000000" stroke-width="2" stroke-opacity="0.200000" points="93.1,-43.11 91,-37.11 88.9,-43.11 93.1,-43.11"/>
</g>
<!-- src/popup -->
<g id="node4" class="node">
<title>src/popup</title>
<g id="a_node4"><a xlink:href="src/popup" xlink:title="popup">
<polygon fill="#ffffcc" stroke="black" points="158,-64.5 105.97,-64.5 104,-62.53 104,-46.75 156.03,-46.75 158,-48.72 158,-64.5"/>
<polyline fill="none" stroke="black" points="156.03,-62.53 104,-62.53"/>
<polyline fill="none" stroke="black" points="156.03,-62.53 156.03,-46.75"/>
<polyline fill="none" stroke="black" points="156.03,-62.53 158,-64.5"/>
<text text-anchor="start" x="117.88" y="-51.95" font-family="Helvetica,sans-Serif" font-size="9.00">popup</text>
</a>
</g>
</g>
<!-- src/infrastructure&#45;&gt;src/popup -->
<g id="edge3" class="edge">
<title>src/infrastructure&#45;&gt;src/popup</title>
<path fill="none" stroke="#000000" stroke-width="2" stroke-opacity="0.200000" d="M102.36,-77.21C105.45,-74.99 108.89,-72.51 112.28,-70.08"/>
<polygon fill="#000000" fill-opacity="0.200000" stroke="#000000" stroke-width="2" stroke-opacity="0.200000" points="113.37,-71.88 117.02,-66.67 110.92,-68.47 113.37,-71.88"/>
</g>
<!-- src/popup&#45;&gt;src/shared -->
<g id="edge5" class="edge">
<title>src/popup&#45;&gt;src/shared</title>
<path fill="none" stroke="#000000" stroke-width="2" stroke-opacity="0.200000" d="M119.64,-46.46C116.55,-44.24 113.11,-41.76 109.72,-39.33"/>
<polygon fill="#000000" fill-opacity="0.200000" stroke="#000000" stroke-width="2" stroke-opacity="0.200000" points="111.08,-37.72 104.98,-35.92 108.63,-41.13 111.08,-37.72"/>
</g>
<!-- src/runtime -->
<g id="node5" class="node">
<title>src/runtime</title>
<g id="a_node5"><a xlink:href="src/runtime" xlink:title="no&#45;orphans">
<polygon fill="#ccffcc" stroke="orange" points="118,-126 65.97,-126 64,-124.03 64,-108.25 116.03,-108.25 118,-110.22 118,-126"/>
<polyline fill="none" stroke="orange" points="116.03,-124.03 64,-124.03"/>
<polyline fill="none" stroke="orange" points="116.03,-124.03 116.03,-108.25"/>
<polyline fill="none" stroke="orange" points="116.03,-124.03 118,-126"/>
<text text-anchor="start" x="75.62" y="-113.45" font-family="Helvetica,sans-Serif" font-size="9.00" fill="orange">runtime</text>
</a>
</g>
</g>
<!-- src/runtime&#45;&gt;src/infrastructure -->
<g id="edge6" class="edge">
<title>src/runtime&#45;&gt;src/infrastructure</title>
<path fill="none" stroke="#000000" stroke-width="2" stroke-opacity="0.200000" d="M91,-107.96C91,-106.88 91,-105.74 91,-104.57"/>
<polygon fill="#000000" fill-opacity="0.200000" stroke="#000000" stroke-width="2" stroke-opacity="0.200000" points="93.1,-104.68 91,-98.68 88.9,-104.68 93.1,-104.68"/>
</g>
</g>
</svg>
