<?xml version="1.0" encoding="UTF-8" standalone="no"?>
<!DOCTYPE svg PUBLIC "-//W3C//DTD SVG 1.1//EN"
 "http://www.w3.org/Graphics/SVG/1.1/DTD/svg11.dtd">
<!-- Generated by graphviz version 12.0.0 (20240704.0754)
 -->
<!-- Title: dependency&#45;cruiser output Pages: 1 -->
<svg width="224pt" height="229pt"
 viewBox="0.00 0.00 224.00 229.25" xmlns="http://www.w3.org/2000/svg" xmlns:xlink="http://www.w3.org/1999/xlink">
<g id="graph0" class="graph" transform="scale(1 1) rotate(0) translate(4 225.25)">
<title>dependency&#45;cruiser output</title>
<polygon fill="white" stroke="none" points="-4,4 -4,-225.25 220,-225.25 220,4 -4,4"/>
<g id="clust1" class="cluster">
<title>cluster_src</title>
<path fill="#ffffff" stroke="black" stroke-width="2" d="M20,-8C20,-8 196,-8 196,-8 202,-8 208,-14 208,-20 208,-20 208,-201.25 208,-201.25 208,-207.25 202,-213.25 196,-213.25 196,-213.25 20,-213.25 20,-213.25 14,-213.25 8,-207.25 8,-201.25 8,-201.25 8,-20 8,-20 8,-14 14,-8 20,-8"/>
<text text-anchor="middle" x="108" y="-200.7" font-family="Helvetica,sans-Serif" font-weight="bold" font-size="9.00">src</text>
</g>
<!-- src/application -->
<g id="node1" class="node">
<title>src/application</title>
<g id="a_node1"><a xlink:href="src/application" xlink:title="application">
<polygon fill="#ffffcc" stroke="black" points="77.5,-95.25 18.47,-95.25 16.5,-93.28 16.5,-77.5 75.53,-77.5 77.5,-79.47 77.5,-95.25"/>
<polyline fill="none" stroke="black" points="75.53,-93.28 16.5,-93.28"/>
<polyline fill="none" stroke="black" points="75.53,-93.28 75.53,-77.5"/>
<polyline fill="none" stroke="black" points="75.53,-93.28 77.5,-95.25"/>
<text text-anchor="start" x="24.5" y="-82.7" font-family="Helvetica,sans-Serif" font-size="9.00">application</text>
</a>
</g>
</g>
<!-- src/host -->
<g id="node2" class="node">
<title>src/host</title>
<g id="a_node2"><a xlink:href="src/host" xlink:title="host">
<polygon fill="#ffffcc" stroke="black" points="106,-64.5 53.97,-64.5 52,-62.53 52,-46.75 104.03,-46.75 106,-48.72 106,-64.5"/>
<polyline fill="none" stroke="black" points="104.03,-62.53 52,-62.53"/>
<polyline fill="none" stroke="black" points="104.03,-62.53 104.03,-46.75"/>
<polyline fill="none" stroke="black" points="104.03,-62.53 106,-64.5"/>
<text text-anchor="start" x="70.38" y="-51.95" font-family="Helvetica,sans-Serif" font-size="9.00">host</text>
</a>
</g>
</g>
<!-- src/application&#45;&gt;src/host -->
<g id="edge1" class="edge">
<title>src/application&#45;&gt;src/host</title>
<path fill="none" stroke="#000000" stroke-width="2" stroke-opacity="0.200000" d="M56.08,-77.21C58.36,-75.17 60.87,-72.91 63.37,-70.67"/>
<polygon fill="#000000" fill-opacity="0.200000" stroke="#000000" stroke-width="2" stroke-opacity="0.200000" points="64.47,-72.5 67.53,-66.93 61.66,-69.38 64.47,-72.5"/>
</g>
<!-- src/shared -->
<g id="node3" class="node">
<title>src/shared</title>
<g id="a_node3"><a xlink:href="src/shared" xlink:title="shared">
<polygon fill="#ffffcc" stroke="black" points="146,-33.75 93.97,-33.75 92,-31.78 92,-16 144.03,-16 146,-17.97 146,-33.75"/>
<polyline fill="none" stroke="black" points="144.03,-31.78 92,-31.78"/>
<polyline fill="none" stroke="black" points="144.03,-31.78 144.03,-16"/>
<polyline fill="none" stroke="black" points="144.03,-31.78 146,-33.75"/>
<text text-anchor="start" x="104.75" y="-21.2" font-family="Helvetica,sans-Serif" font-size="9.00">shared</text>
</a>
</g>
</g>
<!-- src/application&#45;&gt;src/shared -->
<g id="edge2" class="edge">
<title>src/application&#45;&gt;src/shared</title>
<path fill="none" stroke="#000000" stroke-width="2" stroke-opacity="0.200000" d="M44.05,-77.09C41.6,-68.59 39.46,-55.43 46,-46.75 54.59,-35.35 68.98,-29.86 82.72,-27.32"/>
<polygon fill="#000000" fill-opacity="0.200000" stroke="#000000" stroke-width="2" stroke-opacity="0.200000" points="82.95,-29.41 88.59,-26.48 82.35,-25.25 82.95,-29.41"/>
</g>
<!-- src/host&#45;&gt;src/shared -->
<g id="edge6" class="edge">
<title>src/host&#45;&gt;src/shared</title>
<path fill="none" stroke="#000000" stroke-width="2" stroke-opacity="0.200000" d="M90.36,-46.46C93.45,-44.24 96.89,-41.76 100.28,-39.33"/>
<polygon fill="#000000" fill-opacity="0.200000" stroke="#000000" stroke-width="2" stroke-opacity="0.200000" points="101.37,-41.13 105.02,-35.92 98.92,-37.72 101.37,-41.13"/>
</g>
<!-- src/final -->
<g id="node4" class="node">
<title>src/final</title>
<g id="a_node4"><a xlink:href="src/final" xlink:title="final">
<polygon fill="#ffffcc" stroke="black" points="132,-126 79.97,-126 78,-124.03 78,-108.25 130.03,-108.25 132,-110.22 132,-126"/>
<polyline fill="none" stroke="black" points="130.03,-124.03 78,-124.03"/>
<polyline fill="none" stroke="black" points="130.03,-124.03 130.03,-108.25"/>
<polyline fill="none" stroke="black" points="130.03,-124.03 132,-126"/>
<text text-anchor="start" x="96.38" y="-113.45" font-family="Helvetica,sans-Serif" font-size="9.00">final</text>
</a>
</g>
</g>
<!-- src/final&#45;&gt;src/application -->
<g id="edge3" class="edge">
<title>src/final&#45;&gt;src/application</title>
<path fill="none" stroke="#000000" stroke-width="2" stroke-opacity="0.200000" d="M88.22,-107.81C83.01,-105.22 77.15,-102.32 71.52,-99.53"/>
<polygon fill="#000000" fill-opacity="0.200000" stroke="#000000" stroke-width="2" stroke-opacity="0.200000" points="72.56,-97.7 66.25,-96.92 70.69,-101.46 72.56,-97.7"/>
</g>
<!-- src/final&#45;&gt;src/host -->
<g id="edge5" class="edge">
<title>src/final&#45;&gt;src/host</title>
<path fill="none" stroke="#000000" stroke-width="2" stroke-opacity="0.200000" d="M103.83,-107.8C102.48,-99.74 99.8,-87.34 95,-77.5 94.02,-75.49 92.83,-73.48 91.54,-71.55"/>
<polygon fill="#000000" fill-opacity="0.200000" stroke="#000000" stroke-width="2" stroke-opacity="0.200000" points="93.46,-70.61 88.18,-67.07 90.1,-73.13 93.46,-70.61"/>
</g>
<!-- src/final&#45;&gt;src/shared -->
<g id="edge4" class="edge">
<title>src/final&#45;&gt;src/shared</title>
<path fill="none" stroke="#000000" stroke-width="2" stroke-opacity="0.200000" d="M106.29,-107.8C108.57,-93.09 113.36,-62.24 116.36,-42.88"/>
<polygon fill="#000000" fill-opacity="0.200000" stroke="#000000" stroke-width="2" stroke-opacity="0.200000" points="118.4,-43.43 117.25,-37.17 114.25,-42.78 118.4,-43.43"/>
</g>
<!-- src/infrastructure -->
<g id="node5" class="node">
<title>src/infrastructure</title>
<g id="a_node5"><a xlink:href="src/infrastructure" xlink:title="infrastructure">
<polygon fill="#ffffcc" stroke="black" points="139.62,-156.75 72.35,-156.75 70.38,-154.78 70.38,-139 137.65,-139 139.62,-140.97 139.62,-156.75"/>
<polyline fill="none" stroke="black" points="137.65,-154.78 70.38,-154.78"/>
<polyline fill="none" stroke="black" points="137.65,-154.78 137.65,-139"/>
<polyline fill="none" stroke="black" points="137.65,-154.78 139.62,-156.75"/>
<text text-anchor="start" x="78.38" y="-144.2" font-family="Helvetica,sans-Serif" font-size="9.00">infrastructure</text>
</a>
</g>
</g>
<!-- src/infrastructure&#45;&gt;src/application -->
<g id="edge7" class="edge">
<title>src/infrastructure&#45;&gt;src/application</title>
<path fill="none" stroke="#000000" stroke-width="2" stroke-opacity="0.200000" d="M79.03,-138.6C72.46,-135.5 65.89,-131.38 61,-126 55.54,-119.99 52.16,-111.68 50.1,-104.31"/>
<polygon fill="#000000" fill-opacity="0.200000" stroke="#000000" stroke-width="2" stroke-opacity="0.200000" points="52.19,-104.05 48.81,-98.67 48.1,-104.98 52.19,-104.05"/>
</g>
<!-- src/infrastructure&#45;&gt;src/host -->
<g id="edge9" class="edge">
<title>src/infrastructure&#45;&gt;src/host</title>
<path fill="none" stroke="#000000" stroke-width="2" stroke-opacity="0.200000" d="M85.08,-138.67C79.9,-135.51 74.94,-131.34 72,-126 68.19,-119.09 69.13,-115.6 72,-108.25 74.86,-100.93 81.14,-102.57 84,-95.25 86.67,-88.41 86.18,-80.42 84.72,-73.49"/>
<polygon fill="#000000" fill-opacity="0.200000" stroke="#000000" stroke-width="2" stroke-opacity="0.200000" points="86.78,-73.04 83.15,-67.82 82.73,-74.16 86.78,-73.04"/>
</g>
<!-- src/infrastructure&#45;&gt;src/shared -->
<g id="edge10" class="edge">
<title>src/infrastructure&#45;&gt;src/shared</title>
<path fill="none" stroke="#000000" stroke-width="2" stroke-opacity="0.200000" d="M124.92,-138.67C130.1,-135.51 135.06,-131.34 138,-126 145.8,-111.85 132.79,-66.91 124.7,-42.33"/>
<polygon fill="#000000" fill-opacity="0.200000" stroke="#000000" stroke-width="2" stroke-opacity="0.200000" points="126.77,-41.9 122.86,-36.88 122.79,-43.24 126.77,-41.9"/>
</g>
<!-- src/infrastructure&#45;&gt;src/final -->
<g id="edge8" class="edge">
<title>src/infrastructure&#45;&gt;src/final</title>
<path fill="none" stroke="#000000" stroke-width="2" stroke-opacity="0.200000" d="M105,-138.71C105,-137.63 105,-136.49 105,-135.32"/>
<polygon fill="#000000" fill-opacity="0.200000" stroke="#000000" stroke-width="2" stroke-opacity="0.200000" points="107.1,-135.43 105,-129.43 102.9,-135.43 107.1,-135.43"/>
</g>
<!-- src/popup -->
<g id="node6" class="node">
<title>src/popup</title>
<g id="a_node6"><a xlink:href="src/popup" xlink:title="popup">
<polygon fill="#ffffcc" stroke="black" points="200,-95.25 147.97,-95.25 146,-93.28 146,-77.5 198.03,-77.5 200,-79.47 200,-95.25"/>
<polyline fill="none" stroke="black" points="198.03,-93.28 146,-93.28"/>
<polyline fill="none" stroke="black" points="198.03,-93.28 198.03,-77.5"/>
<polyline fill="none" stroke="black" points="198.03,-93.28 200,-95.25"/>
<text text-anchor="start" x="159.88" y="-82.7" font-family="Helvetica,sans-Serif" font-size="9.00">popup</text>
</a>
</g>
</g>
<!-- src/infrastructure&#45;&gt;src/popup -->
<g id="edge11" class="edge">
<title>src/infrastructure&#45;&gt;src/popup</title>
<path fill="none" stroke="#000000" stroke-width="2" stroke-opacity="0.200000" d="M128.89,-138.53C135.88,-135.33 143.2,-131.18 149,-126 156.01,-119.74 161.68,-110.96 165.75,-103.35"/>
<polygon fill="#000000" fill-opacity="0.200000" stroke="#000000" stroke-width="2" stroke-opacity="0.200000" points="167.4,-104.75 168.18,-98.44 163.64,-102.89 167.4,-104.75"/>
</g>
<!-- src/popup&#45;&gt;src/shared -->
<g id="edge12" class="edge">
<title>src/popup&#45;&gt;src/shared</title>
<path fill="none" stroke="#000000" stroke-width="2" stroke-opacity="0.200000" d="M165.49,-77.1C156.95,-67.69 142.83,-52.13 132.39,-40.63"/>
<polygon fill="#000000" fill-opacity="0.200000" stroke="#000000" stroke-width="2" stroke-opacity="0.200000" points="134.07,-39.35 128.48,-36.32 130.96,-42.17 134.07,-39.35"/>
</g>
<!-- src/runtime -->
<g id="node7" class="node">
<title>src/runtime</title>
<g id="a_node7"><a xlink:href="src/runtime" xlink:title="runtime">
<polygon fill="#ffffcc" stroke="black" points="132,-187.5 79.97,-187.5 78,-185.53 78,-169.75 130.03,-169.75 132,-171.72 132,-187.5"/>
<polyline fill="none" stroke="black" points="130.03,-185.53 78,-185.53"/>
<polyline fill="none" stroke="black" points="130.03,-185.53 130.03,-169.75"/>
<polyline fill="none" stroke="black" points="130.03,-185.53 132,-187.5"/>
<text text-anchor="start" x="89.62" y="-174.95" font-family="Helvetica,sans-Serif" font-size="9.00">runtime</text>
</a>
</g>
</g>
<!-- src/runtime&#45;&gt;src/infrastructure -->
<g id="edge13" class="edge">
<title>src/runtime&#45;&gt;src/infrastructure</title>
<path fill="none" stroke="#000000" stroke-width="2" stroke-opacity="0.200000" d="M105,-169.46C105,-168.38 105,-167.24 105,-166.07"/>
<polygon fill="#000000" fill-opacity="0.200000" stroke="#000000" stroke-width="2" stroke-opacity="0.200000" points="107.1,-166.18 105,-160.18 102.9,-166.18 107.1,-166.18"/>
</g>
</g>
</svg>
