<?xml version="1.0" encoding="UTF-8" standalone="no"?>
<!DOCTYPE svg PUBLIC "-//W3C//DTD SVG 1.1//EN"
 "http://www.w3.org/Graphics/SVG/1.1/DTD/svg11.dtd">
<!-- Generated by graphviz version 11.0.0 (20240428.1522)
 -->
<!-- Title: dependency&#45;cruiser output Pages: 1 -->
<svg width="188pt" height="199pt"
 viewBox="0.00 0.00 188.00 198.50" xmlns="http://www.w3.org/2000/svg" xmlns:xlink="http://www.w3.org/1999/xlink">
<g id="graph0" class="graph" transform="scale(1 1) rotate(0) translate(4 194.5)">
<title>dependency&#45;cruiser output</title>
<polygon fill="white" stroke="none" points="-4,4 -4,-194.5 184,-194.5 184,4 -4,4"/>
<g id="clust1" class="cluster">
<title>cluster_src</title>
<path fill="#ffffff" stroke="black" stroke-width="2" d="M20,-8C20,-8 160,-8 160,-8 166,-8 172,-14 172,-20 172,-20 172,-170.5 172,-170.5 172,-176.5 166,-182.5 160,-182.5 160,-182.5 20,-182.5 20,-182.5 14,-182.5 8,-176.5 8,-170.5 8,-170.5 8,-20 8,-20 8,-14 14,-8 20,-8"/>
<text text-anchor="middle" x="90" y="-169.95" font-family="Helvetica,sans-Serif" font-weight="bold" font-size="9.00">src</text>
</g>
<!-- src/application -->
<g id="node1" class="node">
<title>src/application</title>
<g id="a_node1"><a xlink:href="src/application" xlink:title="application">
<polygon fill="#ffffcc" stroke="black" points="77.5,-95.25 18.47,-95.25 16.5,-93.28 16.5,-77.5 75.53,-77.5 77.5,-79.47 77.5,-95.25"/>
<polyline fill="none" stroke="black" points="75.53,-93.28 16.5,-93.28"/>
<polyline fill="none" stroke="black" points="75.53,-93.28 75.53,-77.5"/>
<polyline fill="none" stroke="black" points="75.53,-93.28 77.5,-95.25"/>
<text text-anchor="start" x="24.5" y="-82.7" font-family="Helvetica,sans-Serif" font-size="9.00">application</text>
</a>
</g>
</g>
<!-- src/shared -->
<g id="node2" class="node">
<title>src/shared</title>
<g id="a_node2"><a xlink:href="src/shared" xlink:title="shared">
<polygon fill="#ffffcc" stroke="black" points="104,-33.75 51.97,-33.75 50,-31.78 50,-16 102.03,-16 104,-17.97 104,-33.75"/>
<polyline fill="none" stroke="black" points="102.03,-31.78 50,-31.78"/>
<polyline fill="none" stroke="black" points="102.03,-31.78 102.03,-16"/>
<polyline fill="none" stroke="black" points="102.03,-31.78 104,-33.75"/>
<text text-anchor="start" x="62.75" y="-21.2" font-family="Helvetica,sans-Serif" font-size="9.00">shared</text>
</a>
</g>
</g>
<!-- src/application&#45;&gt;src/shared -->
<g id="edge1" class="edge">
<title>src/application&#45;&gt;src/shared</title>
<path fill="none" stroke="#000000" stroke-width="2" stroke-opacity="0.200000" d="M34.22,-77.06C30.17,-73.69 26.18,-69.43 24,-64.5 20.81,-57.29 19.56,-53.27 24,-46.75 28.2,-40.58 34.53,-36.23 41.37,-33.17"/>
<polygon fill="#000000" fill-opacity="0.200000" stroke="#000000" stroke-width="2" stroke-opacity="0.200000" points="41.81,-35.25 46.7,-31.19 40.34,-31.32 41.81,-35.25"/>
</g>
<!-- src/host -->
<g id="node3" class="node">
<title>src/host</title>
<g id="a_node3"><a xlink:href="src/host" xlink:title="host">
<polygon fill="#ffffcc" stroke="black" points="84,-64.5 31.97,-64.5 30,-62.53 30,-46.75 82.03,-46.75 84,-48.72 84,-64.5"/>
<polyline fill="none" stroke="black" points="82.03,-62.53 30,-62.53"/>
<polyline fill="none" stroke="black" points="82.03,-62.53 82.03,-46.75"/>
<polyline fill="none" stroke="black" points="82.03,-62.53 84,-64.5"/>
<text text-anchor="start" x="48.38" y="-51.95" font-family="Helvetica,sans-Serif" font-size="9.00">host</text>
</a>
</g>
</g>
<!-- src/application&#45;&gt;src/host -->
<g id="edge2" class="edge">
<title>src/application&#45;&gt;src/host</title>
<path fill="none" stroke="#000000" stroke-width="2" stroke-opacity="0.200000" d="M49.84,-77.21C50.26,-76.01 50.7,-74.73 51.15,-73.43"/>
<polygon fill="#000000" fill-opacity="0.200000" stroke="#000000" stroke-width="2" stroke-opacity="0.200000" points="53.14,-74.12 53.12,-67.77 49.17,-72.74 53.14,-74.12"/>
</g>
<!-- src/host&#45;&gt;src/shared -->
<g id="edge3" class="edge">
<title>src/host&#45;&gt;src/shared</title>
<path fill="none" stroke="#000000" stroke-width="2" stroke-opacity="0.200000" d="M62.68,-46.46C63.77,-44.9 64.94,-43.21 66.13,-41.5"/>
<polygon fill="#000000" fill-opacity="0.200000" stroke="#000000" stroke-width="2" stroke-opacity="0.200000" points="67.81,-42.77 69.51,-36.64 64.36,-40.37 67.81,-42.77"/>
</g>
<!-- src/infrastructure -->
<g id="node4" class="node">
<title>src/infrastructure</title>
<g id="a_node4"><a xlink:href="src/infrastructure" xlink:title="infrastructure">
<polygon fill="#ffffcc" stroke="black" points="132.62,-126 65.35,-126 63.38,-124.03 63.38,-108.25 130.65,-108.25 132.62,-110.22 132.62,-126"/>
<polyline fill="none" stroke="black" points="130.65,-124.03 63.38,-124.03"/>
<polyline fill="none" stroke="black" points="130.65,-124.03 130.65,-108.25"/>
<polyline fill="none" stroke="black" points="130.65,-124.03 132.62,-126"/>
<text text-anchor="start" x="71.38" y="-113.45" font-family="Helvetica,sans-Serif" font-size="9.00">infrastructure</text>
</a>
</g>
</g>
<!-- src/infrastructure&#45;&gt;src/application -->
<g id="edge6" class="edge">
<title>src/infrastructure&#45;&gt;src/application</title>
<path fill="none" stroke="#000000" stroke-width="2" stroke-opacity="0.200000" d="M83.25,-107.81C78.88,-105.34 73.99,-102.59 69.25,-99.92"/>
<polygon fill="#000000" fill-opacity="0.200000" stroke="#000000" stroke-width="2" stroke-opacity="0.200000" points="70.44,-98.18 64.18,-97.06 68.37,-101.84 70.44,-98.18"/>
</g>
<!-- src/infrastructure&#45;&gt;src/shared -->
<g id="edge4" class="edge">
<title>src/infrastructure&#45;&gt;src/shared</title>
<path fill="none" stroke="#000000" stroke-width="2" stroke-opacity="0.200000" d="M98.2,-108.18C98.29,-95.02 97.43,-68.04 90,-46.75 89.41,-45.06 88.66,-43.36 87.83,-41.7"/>
<polygon fill="#000000" fill-opacity="0.200000" stroke="#000000" stroke-width="2" stroke-opacity="0.200000" points="89.65,-40.65 84.77,-36.57 86.04,-42.8 89.65,-40.65"/>
</g>
<!-- src/infrastructure&#45;&gt;src/host -->
<g id="edge7" class="edge">
<title>src/infrastructure&#45;&gt;src/host</title>
<path fill="none" stroke="#000000" stroke-width="2" stroke-opacity="0.200000" d="M96.41,-107.79C94.51,-99.5 90.73,-86.72 84,-77.5 82.11,-74.91 79.81,-72.47 77.36,-70.25"/>
<polygon fill="#000000" fill-opacity="0.200000" stroke="#000000" stroke-width="2" stroke-opacity="0.200000" points="79.04,-68.92 73.05,-66.79 76.41,-72.19 79.04,-68.92"/>
</g>
<!-- src/popup -->
<g id="node5" class="node">
<title>src/popup</title>
<g id="a_node5"><a xlink:href="src/popup" xlink:title="popup">
<polygon fill="#ffffcc" stroke="black" points="164,-64.5 111.97,-64.5 110,-62.53 110,-46.75 162.03,-46.75 164,-48.72 164,-64.5"/>
<polyline fill="none" stroke="black" points="162.03,-62.53 110,-62.53"/>
<polyline fill="none" stroke="black" points="162.03,-62.53 162.03,-46.75"/>
<polyline fill="none" stroke="black" points="162.03,-62.53 164,-64.5"/>
<text text-anchor="start" x="123.88" y="-51.95" font-family="Helvetica,sans-Serif" font-size="9.00">popup</text>
</a>
</g>
</g>
<!-- src/infrastructure&#45;&gt;src/popup -->
<g id="edge5" class="edge">
<title>src/infrastructure&#45;&gt;src/popup</title>
<path fill="none" stroke="#000000" stroke-width="2" stroke-opacity="0.200000" d="M103.42,-107.85C109.42,-98.7 119.22,-83.76 126.68,-72.36"/>
<polygon fill="#000000" fill-opacity="0.200000" stroke="#000000" stroke-width="2" stroke-opacity="0.200000" points="128.43,-73.53 129.96,-67.36 124.92,-71.23 128.43,-73.53"/>
</g>
<!-- src/popup&#45;&gt;src/shared -->
<g id="edge8" class="edge">
<title>src/popup&#45;&gt;src/shared</title>
<path fill="none" stroke="#000000" stroke-width="2" stroke-opacity="0.200000" d="M119.65,-46.31C114.13,-43.66 107.91,-40.68 101.96,-37.83"/>
<polygon fill="#000000" fill-opacity="0.200000" stroke="#000000" stroke-width="2" stroke-opacity="0.200000" points="103.16,-36.08 96.84,-35.38 101.34,-39.87 103.16,-36.08"/>
</g>
<!-- src/runtime -->
<g id="node6" class="node">
<title>src/runtime</title>
<g id="a_node6"><a xlink:href="src/runtime" xlink:title="no&#45;orphans">
<polygon fill="#ccffcc" stroke="orange" points="125,-156.75 72.97,-156.75 71,-154.78 71,-139 123.03,-139 125,-140.97 125,-156.75"/>
<polyline fill="none" stroke="orange" points="123.03,-154.78 71,-154.78"/>
<polyline fill="none" stroke="orange" points="123.03,-154.78 123.03,-139"/>
<polyline fill="none" stroke="orange" points="123.03,-154.78 125,-156.75"/>
<text text-anchor="start" x="82.62" y="-144.2" font-family="Helvetica,sans-Serif" font-size="9.00" fill="orange">runtime</text>
</a>
</g>
</g>
<!-- src/runtime&#45;&gt;src/infrastructure -->
<g id="edge9" class="edge">
<title>src/runtime&#45;&gt;src/infrastructure</title>
<path fill="none" stroke="#000000" stroke-width="2" stroke-opacity="0.200000" d="M98,-138.71C98,-137.63 98,-136.49 98,-135.32"/>
<polygon fill="#000000" fill-opacity="0.200000" stroke="#000000" stroke-width="2" stroke-opacity="0.200000" points="100.1,-135.43 98,-129.43 95.9,-135.43 100.1,-135.43"/>
</g>
</g>
</svg>
