<svg width="98" height="24" viewBox="0 0 98 24" fill="none" xmlns="http://www.w3.org/2000/svg">
<g clip-path="url(#clip0_807_1042)">
<path d="M97.399 17.0219C97.399 20.8467 94.2173 23.9611 90.3155 23.9611H78.62V20.0097H90.3155C92.1058 20.0097 93.5653 18.7348 93.5653 17.0219C93.5653 15.309 92.1058 13.927 90.3155 13.927H83.7964C82.7747 13.927 81.8017 13.7129 80.926 13.3333C80.0503 12.9538 79.2621 12.399 78.62 11.7178C77.4329 10.4818 76.7031 8.81752 76.7031 6.98783C76.7031 5.90754 76.9561 4.86618 77.4231 3.94161C78.5518 1.57664 81.0038 0 83.8158 0H88.0484L90.9771 3.19221L91.5026 3.72749V0H95.4432V3.93187H83.7964C81.9963 3.93187 80.5368 5.26521 80.5368 6.9781C80.5368 8.691 81.9963 10.0827 83.7964 10.0827H90.3155C92.3588 10.0827 94.1978 10.9294 95.4822 12.292C96.6692 13.528 97.399 15.1922 97.399 17.0122V17.0219Z" fill="black"/>
<path d="M3.98933 0.0195312V23.9806H0V7.33827L3.84338 3.96114L0 3.97087V0.0195312H3.98933Z" fill="black"/>
<path d="M54.0596 0.0195312V23.9806H50.08L50.0703 7.33827L53.9137 3.96114L50.08 3.97087V0.0195312H54.0596Z" fill="black"/>
<path d="M41.334 15.0562L44.759 12.0781C46.7245 10.3555 47.571 7.59148 46.6466 5.13892C46.6466 5.13892 46.6369 5.10973 46.6272 5.09026C46.5785 4.94428 46.5201 4.80802 46.452 4.66204C45.119 1.7326 42.6086 0.194884 39.5339 0.0683629C36.1868 -0.0581578 32.8299 0.0391658 29.473 0.0391658H29.0449V24.0002H32.9856V22.2484L37.6755 18.2387L38.3761 17.6255L42.9297 23.9905H47.3861L41.3243 15.0562H41.334ZM33.7056 16.4187L32.9759 16.9832V15.9321H32.9856V3.97104C32.9856 3.97104 37.4517 3.89318 39.5631 4.06836C39.5923 4.06836 39.6215 4.06836 39.641 4.06836C42.4335 4.38953 43.4357 7.86398 41.3243 9.72286L38.3761 12.2922L34.27 15.9029L33.7056 16.3993V16.4187Z" fill="black"/>
<path d="M18.6812 0.0292969H6.81055V23.9904H19.0413C23.2933 23.9904 26.728 20.5548 26.728 16.3018V8.08769C26.728 3.64 23.1279 0.0292969 18.6812 0.0292969ZM22.7776 15.9904C22.7776 18.2288 20.9678 20.039 18.7299 20.039H10.761V3.98063H18.5742C20.8997 3.98063 22.7776 5.86871 22.7776 8.18501V15.9904Z" fill="black"/>
<path d="M77.0142 17.0219C77.0142 20.8467 73.8325 23.9611 69.9307 23.9611H58.2352V20.0097H69.9307C71.7211 20.0097 73.1806 18.7348 73.1806 17.0219C73.1806 15.309 71.7211 13.927 69.9307 13.927H63.4116C62.3899 13.927 61.4169 13.7129 60.5412 13.3333C59.6655 12.9538 58.8774 12.399 58.2352 11.7178C57.0481 10.4818 56.3184 8.81752 56.3184 6.98783C56.3184 5.90754 56.5713 4.86618 57.0384 3.94161C58.1671 1.57664 60.5996 0.0194647 63.4116 0.0194647L67.6442 0L70.5924 3.19221L71.1178 3.72749V0H75.0585V3.93187H63.4116C61.6115 3.93187 60.152 5.26521 60.152 6.9781C60.152 8.691 61.6115 10.0827 63.4116 10.0827H69.9307C71.9741 10.0827 73.813 10.9294 75.0974 12.292C76.2845 13.528 77.0142 15.1922 77.0142 17.0122V17.0219Z" fill="black"/>
</g>
<defs>
<clipPath id="clip0_807_1042">
<rect width="98" height="24" fill="white"/>
</clipPath>
</defs>
</svg>
