<svg width="1822" height="2120" viewBox="0 0 1822 2120" fill="none" xmlns="http://www.w3.org/2000/svg">
<g opacity="0.4">
<path d="M1140.71 2550.62H681.195C520.193 2550.62 371.84 2464.7 291.423 2325.51L61.3555 1927.14C40.1784 1890.7 24.6485 1852.01 14.7094 1812.29C-3.70056 1739.59 -3.58752 1663.33 15.1613 1590.79C24.931 1552.21 40.0657 1514.65 60.4521 1479.11C60.5651 1478.55 61.0167 1477.98 61.299 1477.42L124.718 1367.49L188.305 1477.42L291.311 1655.87C371.727 1795.06 520.08 1880.98 681.082 1880.98H1140.6C1301.6 1880.98 1449.95 1795.06 1530.37 1655.87L1633.37 1477.42L1696.79 1367.49L1760.27 1477.42C1760.55 1477.98 1761 1478.55 1761.11 1479.11C1781.56 1514.65 1796.64 1552.21 1806.57 1590.79C1825.27 1663.33 1825.44 1739.59 1807.03 1812.29C1796.97 1852.01 1781.44 1890.7 1760.27 1927.14L1530.37 2325.51C1449.95 2464.7 1301.6 2550.62 1140.6 2550.62H1140.71Z" stroke="#002D1E" stroke-miterlimit="10"/>
<path d="M1140.71 2770.66H681.195C520.193 2770.66 371.84 2684.74 291.424 2545.54L61.3556 2147.17C1.9468 2044.42 -13.5831 1924.26 14.7095 1812.3C24.3662 1773.72 39.3316 1736.32 59.4358 1700.79C60.0005 1699.66 60.7344 1698.64 61.2991 1697.46L123.87 1589.11L188.305 1477.43L291.311 1655.88C371.727 1795.07 520.08 1880.99 681.082 1880.99H1140.6C1301.6 1880.99 1449.95 1795.07 1530.37 1655.88L1633.37 1477.43L1697.7 1589.11L1760.27 1697.46C1760.83 1698.59 1761.57 1699.6 1762.13 1700.79C1782.29 1736.32 1797.26 1773.77 1807.03 1812.3C1835.37 1924.26 1819.68 2044.42 1760.27 2147.17L1530.37 2545.54C1449.95 2684.74 1301.6 2770.66 1140.6 2770.66H1140.71Z" stroke="#002D1E" stroke-miterlimit="10"/>
<path d="M1140.71 2327.37H681.196C520.193 2327.37 371.841 2241.45 291.424 2102.26L61.3562 1703.89C60.7915 1702.87 60.227 1701.74 59.4929 1700.73C39.6146 1665.76 24.8187 1628.64 15.1619 1590.8C-3.69981 1517.53 -3.69981 1440.7 15.1619 1367.43C24.9316 1328.85 40.0663 1291.28 60.4528 1255.92C60.7351 1256.49 61.0173 1256.94 61.2997 1257.5L124.718 1367.43L188.306 1477.36L291.311 1655.82C371.728 1795.01 520.08 1880.93 681.083 1880.93H1140.6C1301.6 1880.93 1449.95 1795.01 1530.37 1655.82L1633.37 1477.36L1696.79 1367.43L1760.27 1257.5C1760.55 1256.94 1760.83 1256.49 1761.11 1255.92C1781.56 1291.34 1796.64 1328.91 1806.57 1367.43C1825.44 1440.7 1825.44 1517.53 1806.57 1590.8C1796.81 1628.64 1781.95 1665.76 1762.13 1700.73C1761.4 1701.74 1760.83 1702.87 1760.27 1703.89L1530.37 2102.26C1449.95 2241.45 1301.6 2327.37 1140.6 2327.37H1140.71Z" stroke="#002D1E" stroke-miterlimit="10"/>
<path d="M1140.71 2104.18H681.196C520.193 2104.18 371.841 2018.26 291.424 1879.06L123.928 1589.04L61.3563 1480.69C61.0739 1480.13 60.7918 1479.68 60.5094 1479.11C40.0665 1443.69 24.9883 1406.01 15.2186 1367.43C-3.64317 1294.33 -3.64317 1217.45 15.2186 1144.35C24.9883 1182.76 40.1229 1220.33 60.5094 1255.86C60.7918 1256.43 61.0739 1256.88 61.3563 1257.45L124.775 1367.38L188.362 1477.31L291.368 1655.76C371.785 1794.95 520.137 1880.87 681.139 1880.87H1140.65C1301.66 1880.87 1450.01 1794.95 1530.43 1655.76L1633.43 1477.31L1696.85 1367.38L1760.32 1257.45C1760.61 1256.88 1760.89 1256.43 1761.17 1255.86C1781.61 1220.33 1796.69 1182.76 1806.63 1144.35C1825.49 1217.45 1825.49 1294.33 1806.63 1367.43C1796.69 1406.01 1781.61 1443.69 1761.17 1479.11C1760.89 1479.68 1760.61 1480.13 1760.32 1480.69L1697.75 1589.04L1530.43 1879.06C1450.01 2018.26 1301.66 2104.18 1140.65 2104.18H1140.71Z" stroke="#002D1E" stroke-miterlimit="10"/>
<path d="M1806.69 920.996C1825.55 994.264 1825.55 1071.09 1806.69 1144.36" stroke="#002D1E" stroke-miterlimit="10"/>
<path d="M15.1619 1144.36C-3.69981 1071.09 -3.69981 994.264 15.1619 920.996" stroke="#002D1E" stroke-miterlimit="10"/>
<path d="M60.5094 809.485C40.0665 844.904 24.9883 882.47 15.2186 920.997C-3.64317 847.898 -3.64317 771.015 15.2186 697.916C24.9883 659.334 40.1229 621.768 60.5094 586.235C60.6224 585.67 61.0739 585.106 61.3563 584.484L124.775 474.554L189.21 362.873L291.368 185.832C371.784 46.6405 520.137 -39.2812 681.139 -39.2812H1140.65C1301.66 -39.2812 1450.01 46.6405 1530.43 185.832L1632.58 362.873L1696.91 474.554L1760.38 584.484C1760.66 585.049 1761.11 585.614 1761.23 586.235C1781.67 621.768 1796.75 659.334 1806.69 697.916C1825.55 771.015 1825.55 847.898 1806.69 920.997C1796.75 882.414 1781.67 844.848 1761.23 809.485C1761.06 808.92 1760.66 808.355 1760.38 807.733L1696.91 697.804L1632.58 586.122L1568.15 474.441L1530.43 409.082C1450.01 269.89 1301.66 183.968 1140.65 183.968H681.139C520.137 183.968 371.784 269.89 291.368 409.082L253.701 474.441L189.266 586.122L124.831 697.804L61.4128 807.733C61.1305 808.298 60.6789 808.863 60.5659 809.485H60.5094Z" stroke="#002D1E" stroke-miterlimit="10"/>
<path d="M61.3563 807.729C61.0739 808.294 60.6224 808.859 60.5094 809.481C40.0665 773.948 24.9883 736.382 15.2186 697.969C-3.64317 624.701 -3.64317 547.874 15.2186 474.606C24.9883 436.024 40.1229 398.458 60.5094 363.095C60.6224 362.53 61.0739 361.965 61.3563 361.344L124.775 251.414L291.368 -37.3082C371.784 -176.5 520.137 -262.422 681.139 -262.422H1140.65C1301.66 -262.422 1450.01 -176.5 1530.43 -37.3082L1696.91 251.414L1760.38 361.344C1760.66 361.908 1761.11 362.473 1761.23 363.095C1781.67 398.514 1796.75 436.08 1806.69 474.606C1825.55 547.874 1825.55 624.701 1806.69 697.969C1796.75 736.382 1783.48 769.316 1763.04 804.905C1762.87 804.34 1760.66 808.351 1760.32 807.786L1696.85 697.856L1632.53 586.175L1568.09 474.494L1530.37 409.134C1449.95 269.942 1301.6 184.021 1140.6 184.021H681.083C520.08 184.021 371.728 269.942 291.311 409.134L253.645 474.494L189.21 586.175L124.775 697.856L61.3563 807.786V807.729Z" stroke="#002D1E" stroke-miterlimit="10"/>
<path d="M189.266 586.118L124.831 697.799L61.4129 587.869C61.1306 587.304 60.8484 586.852 60.5661 586.287C40.1231 550.868 25.0449 513.189 15.2752 474.606C-3.58653 401.507 -3.58653 324.624 15.2752 251.526C25.0449 212.943 40.1796 175.377 60.5661 139.845C60.679 139.28 61.1306 138.715 61.4129 138.093L291.481 -260.558C371.897 -399.75 520.25 -485.672 681.252 -485.672H1140.77C1301.77 -485.672 1450.12 -399.75 1530.54 -260.558L1760.44 138.093C1760.72 138.658 1761.17 139.223 1761.28 139.845C1781.73 175.377 1796.81 212.943 1806.74 251.526C1825.61 324.624 1825.61 401.507 1806.74 474.606C1796.81 513.189 1781.73 550.868 1761.28 586.287C1761 586.852 1760.72 587.304 1760.44 587.869L1696.96 697.799L1632.64 586.118L1568.21 474.436L1530.48 409.077C1450.07 269.885 1301.71 183.964 1140.71 183.964H681.196C520.193 183.964 371.841 269.885 291.424 409.077L253.757 474.436L189.323 586.118H189.266Z" stroke="#002D1E" stroke-miterlimit="10"/>
<path d="M253.754 474.436L189.319 586.117L124.884 474.605L61.4657 364.675C61.1833 364.111 60.9008 363.659 60.6185 363.094C40.1755 327.561 25.0976 289.995 15.3279 251.582C-3.53379 178.314 -3.53379 101.487 15.3279 28.2196C25.2671 -10.9282 40.6275 -49.059 61.5222 -85.0433L291.59 -483.695C372.007 -622.887 520.359 -708.809 681.362 -708.809H1140.88C1301.88 -708.809 1450.23 -622.887 1530.65 -483.695L1760.55 -85.0433C1781.38 -49.059 1796.8 -10.9282 1806.85 28.2196C1825.72 101.487 1825.72 178.314 1806.85 251.582C1796.91 289.995 1781.84 327.561 1761.39 363.094C1761.11 363.659 1760.83 364.111 1760.55 364.675L1697.07 474.605L1632.75 586.117L1568.31 474.436L1530.59 409.077C1450.18 269.885 1301.82 183.963 1140.82 183.963H681.305C520.303 183.963 371.95 269.885 291.534 409.077L253.867 474.436H253.754Z" stroke="#002D1E" stroke-miterlimit="10"/>
<path d="M291.423 409.078L253.756 474.438L189.321 362.926L124.886 251.414L61.4682 141.484C61.1859 140.919 60.9034 140.467 60.621 139.902C40.1781 104.483 25.1002 66.804 15.3305 28.2212C-13.5833 -84.025 1.94654 -204.914 61.5248 -308.235L291.593 -706.886C372.009 -846.078 520.362 -932 681.364 -932H1140.88C1301.88 -932 1450.23 -846.078 1530.65 -706.886L1760.55 -308.235C1820.24 -204.914 1835.77 -84.025 1806.86 28.2212C1796.92 66.804 1781.84 104.483 1761.4 139.902C1761.11 140.467 1760.83 140.919 1760.55 141.484L1697.07 251.414L1632.75 362.926L1568.32 474.438L1530.59 409.078C1450.18 269.887 1301.82 183.965 1140.82 183.965H681.308C520.305 183.965 371.953 269.887 291.536 409.078H291.423Z" stroke="#002D1E" stroke-miterlimit="10"/>
<path d="M1806.69 920.996C1825.55 994.264 1825.55 1071.09 1806.69 1144.36" stroke="#002D1E" stroke-miterlimit="10"/>
<path d="M15.1619 1144.36C-3.69981 1071.09 -3.69981 994.264 15.1619 920.996" stroke="#002D1E" stroke-miterlimit="10"/>
</g>
</svg>
